<mxfile host="app.diagrams.net" modified="2023-10-18T10:07:37.335Z" agent="Mozilla/5.0 (Macintosh; Intel Mac OS X 10_15_7) AppleWebKit/537.36 (KHTML, like Gecko) Chrome/118.0.0.0 Safari/537.36" version="22.0.4" etag="QNN4KOnhKJfUc2_Jx9og" type="github">
  <diagram name="페이지-1" id="M2l6K5X_iqpxD_II-UZM">
    <mxGraphModel>
      <root>
        <mxCell id="0" />
        <mxCell id="1" parent="0" />
      </root>
    </mxGraphModel>
  </diagram>
</mxfile>
